{
	"asset":{
		"generator":"Khronos glTF Blender I/O v4.2.60",
		"version":"2.0"
	},
	"extensionsUsed":[
		"KHR_materials_clearcoat"
	],
	"scene":0,
	"scenes":[
		{
			"name":"Scene",
			"nodes":[
				0,
				1,
				2
			]
		}
	],
	"nodes":[
		{
			"mesh":0,
			"name":"frame"
		},
		{
			"mesh":1,
			"name":"seat_low_textured"
		},
		{
			"mesh":2,
			"name":"seat_back_low_material"
		}
	],
	"materials":[
		{
			"doubleSided":true,
			"extensions":{
				"KHR_materials_clearcoat":{
					"clearcoatFactor":0.5199999809265137,
					"clearcoatRoughnessFactor":0.23999999463558197
				}
			},
			"name":"oak_wood",
			"normalTexture":{
				"index":0,
				"scale":2.309999942779541
			},
			"pbrMetallicRoughness":{
				"baseColorFactor":[
					0.9130986332893372,
					0.8962693810462952,
					0.7835378050804138,
					1
				],
				"baseColorTexture":{
					"index":1
				},
				"metallicFactor":0,
				"roughnessFactor":0.3199999928474426
			}
		},
		{
			"doubleSided":true,
			"name":"Black_Leather",
			"normalTexture":{
				"index":2,
				"scale":1.6999999284744263,
				"texCoord":1
			},
			"pbrMetallicRoughness":{
				"baseColorTexture":{
					"index":3,
					"texCoord":1
				},
				"metallicFactor":0,
				"roughnessFactor":0.5
			}
		}
	],
	"meshes":[
		{
			"name":"Mesh_0",
			"primitives":[
				{
					"attributes":{
						"POSITION":0,
						"NORMAL":1,
						"TEXCOORD_0":2
					},
					"indices":3,
					"material":0
				}
			]
		},
		{
			"name":"Mesh_1",
			"primitives":[
				{
					"attributes":{
						"POSITION":4,
						"NORMAL":5,
						"TEXCOORD_0":6,
						"TEXCOORD_1":7
					},
					"indices":8,
					"material":1
				}
			]
		},
		{
			"name":"Mesh_2",
			"primitives":[
				{
					"attributes":{
						"POSITION":9,
						"NORMAL":10,
						"TEXCOORD_0":11,
						"TEXCOORD_1":12
					},
					"indices":13,
					"material":1
				}
			]
		}
	],
	"textures":[
		{
			"sampler":0,
			"source":0
		},
		{
			"sampler":0,
			"source":1
		},
		{
			"sampler":0,
			"source":2
		},
		{
			"sampler":0,
			"source":3
		}
	],
	"images":[
		{
			"mimeType":"image/jpeg",
			"name":"oak_normal",
			"uri":"oak_normal.jpg"
		},
		{
			"mimeType":"image/jpeg",
			"name":"oak_diffuse",
			"uri":"oak_diffuse.jpg"
		},
		{
			"mimeType":"image/jpeg",
			"name":"combined_normals",
			"uri":"combined_normals.jpg"
		},
		{
			"mimeType":"image/jpeg",
			"name":"leather_black_diffuse",
			"uri":"leather_black_diffuse.jpg"
		}
	],
	"accessors":[
		{
			"bufferView":0,
			"componentType":5126,
			"count":8041,
			"max":[
				0.4297810196876526,
				0.9435838460922241,
				0.4734437167644501
			],
			"min":[
				-0.42793208360671997,
				-4.449998959898949e-05,
				-0.5180995464324951
			],
			"type":"VEC3"
		},
		{
			"bufferView":1,
			"componentType":5126,
			"count":8041,
			"type":"VEC3"
		},
		{
			"bufferView":2,
			"componentType":5126,
			"count":8041,
			"type":"VEC2"
		},
		{
			"bufferView":3,
			"componentType":5123,
			"count":40716,
			"type":"SCALAR"
		},
		{
			"bufferView":4,
			"componentType":5126,
			"count":6828,
			"max":[
				0.3356698453426361,
				0.5349401235580444,
				0.45270559191703796
			],
			"min":[
				-0.33361387252807617,
				0.3776133060455322,
				-0.1857050061225891
			],
			"type":"VEC3"
		},
		{
			"bufferView":5,
			"componentType":5126,
			"count":6828,
			"type":"VEC3"
		},
		{
			"bufferView":6,
			"componentType":5126,
			"count":6828,
			"type":"VEC2"
		},
		{
			"bufferView":7,
			"componentType":5126,
			"count":6828,
			"type":"VEC2"
		},
		{
			"bufferView":8,
			"componentType":5123,
			"count":38484,
			"type":"SCALAR"
		},
		{
			"bufferView":9,
			"componentType":5126,
			"count":6802,
			"max":[
				0.3376961648464203,
				0.9489505290985107,
				-0.1995849609375
			],
			"min":[
				-0.32853806018829346,
				0.4925086498260498,
				-0.4896867871284485
			],
			"type":"VEC3"
		},
		{
			"bufferView":10,
			"componentType":5126,
			"count":6802,
			"type":"VEC3"
		},
		{
			"bufferView":11,
			"componentType":5126,
			"count":6802,
			"type":"VEC2"
		},
		{
			"bufferView":12,
			"componentType":5126,
			"count":6802,
			"type":"VEC2"
		},
		{
			"bufferView":13,
			"componentType":5123,
			"count":39324,
			"type":"SCALAR"
		}
	],
	"bufferViews":[
		{
			"buffer":0,
			"byteLength":96492,
			"byteOffset":0,
			"target":34962
		},
		{
			"buffer":0,
			"byteLength":96492,
			"byteOffset":96492,
			"target":34962
		},
		{
			"buffer":0,
			"byteLength":64328,
			"byteOffset":192984,
			"target":34962
		},
		{
			"buffer":0,
			"byteLength":81432,
			"byteOffset":257312,
			"target":34963
		},
		{
			"buffer":0,
			"byteLength":81936,
			"byteOffset":338744,
			"target":34962
		},
		{
			"buffer":0,
			"byteLength":81936,
			"byteOffset":420680,
			"target":34962
		},
		{
			"buffer":0,
			"byteLength":54624,
			"byteOffset":502616,
			"target":34962
		},
		{
			"buffer":0,
			"byteLength":54624,
			"byteOffset":557240,
			"target":34962
		},
		{
			"buffer":0,
			"byteLength":76968,
			"byteOffset":611864,
			"target":34963
		},
		{
			"buffer":0,
			"byteLength":81624,
			"byteOffset":688832,
			"target":34962
		},
		{
			"buffer":0,
			"byteLength":81624,
			"byteOffset":770456,
			"target":34962
		},
		{
			"buffer":0,
			"byteLength":54416,
			"byteOffset":852080,
			"target":34962
		},
		{
			"buffer":0,
			"byteLength":54416,
			"byteOffset":906496,
			"target":34962
		},
		{
			"buffer":0,
			"byteLength":78648,
			"byteOffset":960912,
			"target":34963
		}
	],
	"samplers":[
		{
			"magFilter":9729,
			"minFilter":9987
		}
	],
	"buffers":[
		{
			"byteLength":1039560,
			"uri":"chair.bin"
		}
	]
}
