{
	"asset":{
		"generator":"Khronos glTF Blender I/O v4.2.60",
		"version":"2.0"
	},
	"extensionsUsed":[
		"KHR_materials_clearcoat",
		"KHR_materials_specular",
		"KHR_materials_ior"
	],
	"scene":0,
	"scenes":[
		{
			"name":"Scene",
			"nodes":[
				0,
				1,
				2
			]
		}
	],
	"nodes":[
		{
			"mesh":0,
			"name":"seat_cushion",
			"rotation":[
				-0.048519209027290344,
				0,
				0,
				0.9988223314285278
			],
			"scale":[
				1.4085863828659058,
				1.4085863828659058,
				1.3130275011062622
			],
			"translation":[
				0.0012709656730294228,
				0.4863632917404175,
				0.15429288148880005
			]
		},
		{
			"mesh":1,
			"name":"frame"
		},
		{
			"mesh":2,
			"name":"back_cushion",
			"rotation":[
				-0.02379598096013069,
				0,
				0,
				0.9997169375419617
			],
			"scale":[
				1.4085863828659058,
				1.4085863828659058,
				1.4085863828659058
			],
			"translation":[
				0.00498755369335413,
				0.6865296959877014,
				-0.31813761591911316
			]
		}
	],
	"materials":[
		{
			"doubleSided":true,
			"extensions":{
				"KHR_materials_specular":{
					"specularFactor":0.968181848526001
				},
				"KHR_materials_ior":{
					"ior":1.4500000476837158
				}
			},
			"name":"Black_Leather",
			"normalTexture":{
				"index":0
			},
			"pbrMetallicRoughness":{
				"baseColorTexture":{
					"index":1
				},
				"metallicFactor":0,
				"roughnessFactor":0.5269936323165894
			}
		},
		{
			"doubleSided":true,
			"extensions":{
				"KHR_materials_clearcoat":{
					"clearcoatFactor":0.5199999809265137,
					"clearcoatRoughnessFactor":0.23999999463558197
				}
			},
			"name":"Oak_Wood",
			"normalTexture":{
				"index":2,
				"scale":2.309999942779541
			},
			"pbrMetallicRoughness":{
				"baseColorTexture":{
					"index":3
				},
				"metallicFactor":0,
				"roughnessFactor":0.3199999928474426
			}
		},
		{
			"doubleSided":true,
			"name":"Walnut_Wood",
			"normalTexture":{
				"index":4
			},
			"pbrMetallicRoughness":{
				"baseColorTexture":{
					"index":5
				},
				"metallicFactor":0,
				"roughnessFactor":0.3545454740524292
			}
		},
		{
			"doubleSided":true,
			"extensions":{
				"KHR_materials_specular":{
					"specularFactor":0.968181848526001
				},
				"KHR_materials_ior":{
					"ior":1.4500000476837158
				}
			},
			"name":"Cognac_Leather",
			"normalTexture":{
				"index":6
			},
			"pbrMetallicRoughness":{
				"baseColorTexture":{
					"index":7
				},
				"metallicFactor":0,
				"roughnessFactor":0.4158572554588318
			}
		},
		{
			"doubleSided":true,
			"name":"Charcoal_Fabric",
			"normalTexture":{
				"index":8
			},
			"pbrMetallicRoughness":{
				"baseColorTexture":{
					"index":9
				},
				"metallicFactor":0,
				"roughnessFactor":0.7213634252548218
			}
		},
		{
			"doubleSided":true,
			"name":"Grey_Leather",
			"normalTexture":{
				"index":10
			},
			"pbrMetallicRoughness":{
				"baseColorTexture":{
					"index":11
				},
				"metallicFactor":0,
				"roughnessFactor":0.4804545044898987
			}
		}
	],
	"meshes":[
		{
			"name":"Black.008",
			"primitives":[
				{
					"attributes":{
						"POSITION":0,
						"NORMAL":1,
						"TEXCOORD_0":2
					},
					"indices":3,
					"material":0
				}
			]
		},
		{
			"name":"Mesh_0",
			"primitives":[
				{
					"attributes":{
						"POSITION":4,
						"NORMAL":5,
						"TEXCOORD_0":6
					},
					"indices":7,
					"material":1
				},
				{
					"attributes":{
						"POSITION":8,
						"NORMAL":9,
						"TEXCOORD_0":10
					},
					"indices":11,
					"material":2
				}
			]
		},
		{
			"name":"Black.007",
			"primitives":[
				{
					"attributes":{
						"POSITION":12,
						"NORMAL":13,
						"TEXCOORD_0":14
					},
					"indices":15,
					"material":0
				},
				{
					"attributes":{
						"POSITION":16,
						"NORMAL":17,
						"TEXCOORD_0":18
					},
					"indices":19,
					"material":3
				},
				{
					"attributes":{
						"POSITION":20,
						"NORMAL":21,
						"TEXCOORD_0":22
					},
					"indices":23,
					"material":4
				},
				{
					"attributes":{
						"POSITION":24,
						"NORMAL":25,
						"TEXCOORD_0":26
					},
					"indices":27,
					"material":5
				}
			]
		}
	],
	"textures":[
		{
			"sampler":0,
			"source":0
		},
		{
			"sampler":0,
			"source":1
		},
		{
			"sampler":0,
			"source":2
		},
		{
			"sampler":0,
			"source":3
		},
		{
			"sampler":0,
			"source":4
		},
		{
			"sampler":0,
			"source":5
		},
		{
			"sampler":0,
			"source":6
		},
		{
			"sampler":0,
			"source":7
		},
		{
			"sampler":0,
			"source":0
		},
		{
			"sampler":0,
			"source":8
		},
		{
			"sampler":0,
			"source":9
		},
		{
			"sampler":0,
			"source":10
		}
	],
	"images":[
		{
			"mimeType":"image/jpeg",
			"name":"fabric_charcoal_normal",
			"uri":"fabric_charcoal_normal.jpg"
		},
		{
			"mimeType":"image/jpeg",
			"name":"leather_color",
			"uri":"leather_color.jpg"
		},
		{
			"mimeType":"image/jpeg",
			"name":"oak_normal",
			"uri":"oak_normal.jpg"
		},
		{
			"mimeType":"image/jpeg",
			"name":"oak_diffuse",
			"uri":"oak_diffuse.jpg"
		},
		{
			"mimeType":"image/jpeg",
			"name":"walnut_normal",
			"uri":"walnut_normal.jpg"
		},
		{
			"mimeType":"image/jpeg",
			"name":"walnut_diffuse",
			"uri":"walnut_diffuse.jpg"
		},
		{
			"mimeType":"image/jpeg",
			"name":"leather_normal",
			"uri":"leather_normal.jpg"
		},
		{
			"mimeType":"image/jpeg",
			"name":"leather_cognac_diffuse",
			"uri":"leather_cognac_diffuse.jpg"
		},
		{
			"mimeType":"image/jpeg",
			"name":"fabric_charcoal_diffuse",
			"uri":"fabric_charcoal_diffuse.jpg"
		},
		{
			"mimeType":"image/jpeg",
			"name":"leather_grey_normal",
			"uri":"leather_grey_normal.jpg"
		},
		{
			"mimeType":"image/jpeg",
			"name":"leather_grey_diffuse",
			"uri":"leather_grey_diffuse.jpg"
		}
	],
	"accessors":[
		{
			"bufferView":0,
			"componentType":5126,
			"count":10797,
			"max":[
				0.23763145506381989,
				0.019984373822808266,
				0.2252834290266037
			],
			"min":[
				-0.23738603293895721,
				-0.05550594627857208,
				-0.26381242275238037
			],
			"type":"VEC3"
		},
		{
			"bufferView":1,
			"componentType":5126,
			"count":10797,
			"type":"VEC3"
		},
		{
			"bufferView":2,
			"componentType":5126,
			"count":10797,
			"type":"VEC2"
		},
		{
			"bufferView":3,
			"componentType":5123,
			"count":61575,
			"type":"SCALAR"
		},
		{
			"bufferView":4,
			"componentType":5126,
			"count":3,
			"max":[
				0.37370598316192627,
				0.00024581700563430786,
				0.442611962556839
			],
			"min":[
				0.35166409611701965,
				0.0002453080378472805,
				0.4106139838695526
			],
			"type":"VEC3"
		},
		{
			"bufferView":5,
			"componentType":5126,
			"count":3,
			"type":"VEC3"
		},
		{
			"bufferView":6,
			"componentType":5126,
			"count":3,
			"type":"VEC2"
		},
		{
			"bufferView":7,
			"componentType":5123,
			"count":3,
			"type":"SCALAR"
		},
		{
			"bufferView":8,
			"componentType":5126,
			"count":8041,
			"max":[
				0.4297810196876526,
				0.9435838460922241,
				0.4734437167644501
			],
			"min":[
				-0.42793208360671997,
				-4.449998959898949e-05,
				-0.5180995464324951
			],
			"type":"VEC3"
		},
		{
			"bufferView":9,
			"componentType":5126,
			"count":8041,
			"type":"VEC3"
		},
		{
			"bufferView":10,
			"componentType":5126,
			"count":8041,
			"type":"VEC2"
		},
		{
			"bufferView":11,
			"componentType":5123,
			"count":40713,
			"type":"SCALAR"
		},
		{
			"bufferView":12,
			"componentType":5126,
			"count":9773,
			"max":[
				0.23686152696609497,
				0.19083133339881897,
				0.07883898913860321
			],
			"min":[
				-0.2366820126771927,
				-0.14006651937961578,
				-0.11385771632194519
			],
			"type":"VEC3"
		},
		{
			"bufferView":13,
			"componentType":5126,
			"count":9773,
			"type":"VEC3"
		},
		{
			"bufferView":14,
			"componentType":5126,
			"count":9773,
			"type":"VEC2"
		},
		{
			"bufferView":15,
			"componentType":5123,
			"count":49050,
			"type":"SCALAR"
		},
		{
			"bufferView":16,
			"componentType":5126,
			"count":3,
			"max":[
				0.22276924550533295,
				0.14544016122817993,
				-0.0689815804362297
			],
			"min":[
				0.21890316903591156,
				0.10500951111316681,
				-0.08975964784622192
			],
			"type":"VEC3"
		},
		{
			"bufferView":17,
			"componentType":5126,
			"count":3,
			"type":"VEC3"
		},
		{
			"bufferView":18,
			"componentType":5126,
			"count":3,
			"type":"VEC2"
		},
		{
			"bufferView":19,
			"componentType":5123,
			"count":3,
			"type":"SCALAR"
		},
		{
			"bufferView":20,
			"componentType":5126,
			"count":4,
			"max":[
				0.23072531819343567,
				0.08007171005010605,
				-0.024899214506149292
			],
			"min":[
				0.22629715502262115,
				0.019041413441300392,
				-0.05421802029013634
			],
			"type":"VEC3"
		},
		{
			"bufferView":21,
			"componentType":5126,
			"count":4,
			"type":"VEC3"
		},
		{
			"bufferView":22,
			"componentType":5126,
			"count":4,
			"type":"VEC2"
		},
		{
			"bufferView":23,
			"componentType":5123,
			"count":6,
			"type":"SCALAR"
		},
		{
			"bufferView":24,
			"componentType":5126,
			"count":3,
			"max":[
				0.22409823536872864,
				0.11208990216255188,
				-0.054900914430618286
			],
			"min":[
				0.22044333815574646,
				0.07889696955680847,
				-0.07152648270130157
			],
			"type":"VEC3"
		},
		{
			"bufferView":25,
			"componentType":5126,
			"count":3,
			"type":"VEC3"
		},
		{
			"bufferView":26,
			"componentType":5126,
			"count":3,
			"type":"VEC2"
		},
		{
			"bufferView":27,
			"componentType":5123,
			"count":3,
			"type":"SCALAR"
		}
	],
	"bufferViews":[
		{
			"buffer":0,
			"byteLength":129564,
			"byteOffset":0,
			"target":34962
		},
		{
			"buffer":0,
			"byteLength":129564,
			"byteOffset":129564,
			"target":34962
		},
		{
			"buffer":0,
			"byteLength":86376,
			"byteOffset":259128,
			"target":34962
		},
		{
			"buffer":0,
			"byteLength":123150,
			"byteOffset":345504,
			"target":34963
		},
		{
			"buffer":0,
			"byteLength":36,
			"byteOffset":468656,
			"target":34962
		},
		{
			"buffer":0,
			"byteLength":36,
			"byteOffset":468692,
			"target":34962
		},
		{
			"buffer":0,
			"byteLength":24,
			"byteOffset":468728,
			"target":34962
		},
		{
			"buffer":0,
			"byteLength":6,
			"byteOffset":468752,
			"target":34963
		},
		{
			"buffer":0,
			"byteLength":96492,
			"byteOffset":468760,
			"target":34962
		},
		{
			"buffer":0,
			"byteLength":96492,
			"byteOffset":565252,
			"target":34962
		},
		{
			"buffer":0,
			"byteLength":64328,
			"byteOffset":661744,
			"target":34962
		},
		{
			"buffer":0,
			"byteLength":81426,
			"byteOffset":726072,
			"target":34963
		},
		{
			"buffer":0,
			"byteLength":117276,
			"byteOffset":807500,
			"target":34962
		},
		{
			"buffer":0,
			"byteLength":117276,
			"byteOffset":924776,
			"target":34962
		},
		{
			"buffer":0,
			"byteLength":78184,
			"byteOffset":1042052,
			"target":34962
		},
		{
			"buffer":0,
			"byteLength":98100,
			"byteOffset":1120236,
			"target":34963
		},
		{
			"buffer":0,
			"byteLength":36,
			"byteOffset":1218336,
			"target":34962
		},
		{
			"buffer":0,
			"byteLength":36,
			"byteOffset":1218372,
			"target":34962
		},
		{
			"buffer":0,
			"byteLength":24,
			"byteOffset":1218408,
			"target":34962
		},
		{
			"buffer":0,
			"byteLength":6,
			"byteOffset":1218432,
			"target":34963
		},
		{
			"buffer":0,
			"byteLength":48,
			"byteOffset":1218440,
			"target":34962
		},
		{
			"buffer":0,
			"byteLength":48,
			"byteOffset":1218488,
			"target":34962
		},
		{
			"buffer":0,
			"byteLength":32,
			"byteOffset":1218536,
			"target":34962
		},
		{
			"buffer":0,
			"byteLength":12,
			"byteOffset":1218568,
			"target":34963
		},
		{
			"buffer":0,
			"byteLength":36,
			"byteOffset":1218580,
			"target":34962
		},
		{
			"buffer":0,
			"byteLength":36,
			"byteOffset":1218616,
			"target":34962
		},
		{
			"buffer":0,
			"byteLength":24,
			"byteOffset":1218652,
			"target":34962
		},
		{
			"buffer":0,
			"byteLength":6,
			"byteOffset":1218676,
			"target":34963
		}
	],
	"samplers":[
		{
			"magFilter":9729,
			"minFilter":9987
		}
	],
	"buffers":[
		{
			"byteLength":1218684,
			"uri":"chair.bin"
		}
	]
}
