{
	"asset":{
		"generator":"Khronos glTF Blender I/O v4.2.60",
		"version":"2.0"
	},
	"scene":0,
	"scenes":[
		{
			"name":"Scene",
			"nodes":[
				0,
				1,
				2
			]
		}
	],
	"nodes":[
		{
			"mesh":0,
			"name":"chair_frame_high_painted",
			"translation":[
				-0.8184928894042969,
				0,
				0.5704431533813477
			]
		},
		{
			"mesh":1,
			"name":"seat_low_textured",
			"rotation":[
				-0.048519209027290344,
				0,
				0,
				0.9988223314285278
			],
			"scale":[
				1.4085863828659058,
				1.4085863828659058,
				1.3130275011062622
			],
			"translation":[
				-0.8195756077766418,
				0.49243807792663574,
				0.6715834140777588
			]
		},
		{
			"mesh":2,
			"name":"seat_back_low_material",
			"rotation":[
				-0.02379598096013069,
				0,
				0,
				0.9997169375419617
			],
			"scale":[
				1.4085863828659058,
				1.4085863828659058,
				1.4085863828659058
			],
			"translation":[
				-0.8158594369888306,
				0.6926045417785645,
				0.19915291666984558
			]
		}
	],
	"materials":[
		{
			"doubleSided":true,
			"name":"Wood_Material",
			"normalTexture":{
				"index":0,
				"scale":1.2899999618530273
			},
			"pbrMetallicRoughness":{
				"baseColorTexture":{
					"index":1
				},
				"metallicFactor":0,
				"roughnessFactor":0.5
			}
		},
		{
			"doubleSided":true,
			"name":"Cushion_Material",
			"normalTexture":{
				"index":2
			},
			"pbrMetallicRoughness":{
				"baseColorTexture":{
					"index":3
				},
				"metallicFactor":0,
				"roughnessFactor":0.5
			}
		},
		{
			"doubleSided":true,
			"name":"Cushion_Material.001",
			"normalTexture":{
				"index":4
			},
			"pbrMetallicRoughness":{
				"baseColorTexture":{
					"index":5
				},
				"metallicFactor":0,
				"roughnessFactor":0.5
			}
		}
	],
	"meshes":[
		{
			"name":"Wood.003",
			"primitives":[
				{
					"attributes":{
						"POSITION":0,
						"NORMAL":1,
						"TEXCOORD_0":2
					},
					"indices":3,
					"material":0
				}
			]
		},
		{
			"name":"Black.002",
			"primitives":[
				{
					"attributes":{
						"POSITION":4,
						"NORMAL":5,
						"TEXCOORD_0":6
					},
					"indices":7,
					"material":1
				}
			]
		},
		{
			"name":"Black.014",
			"primitives":[
				{
					"attributes":{
						"POSITION":8,
						"NORMAL":9,
						"TEXCOORD_0":10
					},
					"indices":11,
					"material":2
				}
			]
		}
	],
	"textures":[
		{
			"sampler":0,
			"source":0
		},
		{
			"sampler":0,
			"source":1
		},
		{
			"sampler":0,
			"source":2
		},
		{
			"sampler":0,
			"source":3
		},
		{
			"sampler":0,
			"source":4
		},
		{
			"sampler":0,
			"source":5
		}
	],
	"images":[
		{
			"mimeType":"image/jpeg",
			"name":"oak_normal",
			"uri":"oak_normal.jpg"
		},
		{
			"mimeType":"image/jpeg",
			"name":"oak_texture_lit",
			"uri":"oak_texture_lit.jpg"
		},
		{
			"mimeType":"image/jpeg",
			"name":"Seat_leather_normal",
			"uri":"Seat_leather_normal.jpg"
		},
		{
			"mimeType":"image/jpeg",
			"name":"leather_sea_black2",
			"uri":"leather_sea_black2.jpg"
		},
		{
			"mimeType":"image/jpeg",
			"name":"Seat_back_normal",
			"uri":"Seat_back_normal.jpg"
		},
		{
			"mimeType":"image/jpeg",
			"name":"leather_back_black",
			"uri":"leather_back_black.jpg"
		}
	],
	"accessors":[
		{
			"bufferView":0,
			"componentType":5126,
			"count":8030,
			"max":[
				0.42786353826522827,
				0.9497890472412109,
				0.419838547706604
			],
			"min":[
				-0.4298495650291443,
				0.006136476062238216,
				-0.5717275142669678
			],
			"type":"VEC3"
		},
		{
			"bufferView":1,
			"componentType":5126,
			"count":8030,
			"type":"VEC3"
		},
		{
			"bufferView":2,
			"componentType":5126,
			"count":8030,
			"type":"VEC2"
		},
		{
			"bufferView":3,
			"componentType":5123,
			"count":40716,
			"type":"SCALAR"
		},
		{
			"bufferView":4,
			"componentType":5126,
			"count":6828,
			"max":[
				0.23770999908447266,
				0.020145190879702568,
				0.22527644038200378
			],
			"min":[
				-0.23743566870689392,
				-0.0555872917175293,
				-0.26384538412094116
			],
			"type":"VEC3"
		},
		{
			"bufferView":5,
			"componentType":5126,
			"count":6828,
			"type":"VEC3"
		},
		{
			"bufferView":6,
			"componentType":5126,
			"count":6828,
			"type":"VEC2"
		},
		{
			"bufferView":7,
			"componentType":5123,
			"count":38484,
			"type":"SCALAR"
		},
		{
			"bufferView":8,
			"componentType":5126,
			"count":6802,
			"max":[
				0.23651033639907837,
				0.19046814739704132,
				0.07879393547773361
			],
			"min":[
				-0.23647040128707886,
				-0.1397801786661148,
				-0.11373735219240189
			],
			"type":"VEC3"
		},
		{
			"bufferView":9,
			"componentType":5126,
			"count":6802,
			"type":"VEC3"
		},
		{
			"bufferView":10,
			"componentType":5126,
			"count":6802,
			"type":"VEC2"
		},
		{
			"bufferView":11,
			"componentType":5123,
			"count":39324,
			"type":"SCALAR"
		}
	],
	"bufferViews":[
		{
			"buffer":0,
			"byteLength":96360,
			"byteOffset":0,
			"target":34962
		},
		{
			"buffer":0,
			"byteLength":96360,
			"byteOffset":96360,
			"target":34962
		},
		{
			"buffer":0,
			"byteLength":64240,
			"byteOffset":192720,
			"target":34962
		},
		{
			"buffer":0,
			"byteLength":81432,
			"byteOffset":256960,
			"target":34963
		},
		{
			"buffer":0,
			"byteLength":81936,
			"byteOffset":338392,
			"target":34962
		},
		{
			"buffer":0,
			"byteLength":81936,
			"byteOffset":420328,
			"target":34962
		},
		{
			"buffer":0,
			"byteLength":54624,
			"byteOffset":502264,
			"target":34962
		},
		{
			"buffer":0,
			"byteLength":76968,
			"byteOffset":556888,
			"target":34963
		},
		{
			"buffer":0,
			"byteLength":81624,
			"byteOffset":633856,
			"target":34962
		},
		{
			"buffer":0,
			"byteLength":81624,
			"byteOffset":715480,
			"target":34962
		},
		{
			"buffer":0,
			"byteLength":54416,
			"byteOffset":797104,
			"target":34962
		},
		{
			"buffer":0,
			"byteLength":78648,
			"byteOffset":851520,
			"target":34963
		}
	],
	"samplers":[
		{
			"magFilter":9729,
			"minFilter":9987
		}
	],
	"buffers":[
		{
			"byteLength":930168,
			"uri":"chair.bin"
		}
	]
}
