{
	"asset":{
		"generator":"Khronos glTF Blender I/O v4.2.60",
		"version":"2.0"
	},
	"extensionsUsed":[
		"KHR_materials_clearcoat"
	],
	"scene":0,
	"scenes":[
		{
			"name":"Scene",
			"nodes":[
				0,
				1,
				2
			]
		}
	],
	"nodes":[
		{
			"mesh":0,
			"name":"frame"
		},
		{
			"mesh":1,
			"name":"seat_cushion"
		},
		{
			"mesh":2,
			"name":"back_cushion"
		}
	],
	"materials":[
		{
			"doubleSided":true,
			"extensions":{
				"KHR_materials_clearcoat":{
					"clearcoatFactor":0.5199999809265137,
					"clearcoatRoughnessFactor":0.23999999463558197
				}
			},
			"name":"Oak_Wood",
			"normalTexture":{
				"index":0,
				"scale":2.309999942779541
			},
			"pbrMetallicRoughness":{
				"baseColorFactor":[
					0.9130986332893372,
					0.8962693810462952,
					0.7835378050804138,
					1
				],
				"baseColorTexture":{
					"index":1
				},
				"metallicFactor":0,
				"roughnessFactor":0.3199999928474426
			}
		},
		{
			"doubleSided":true,
			"name":"Walnut_Wood",
			"normalTexture":{
				"index":2,
				"scale":1.5299999713897705
			},
			"pbrMetallicRoughness":{
				"baseColorTexture":{
					"index":3
				},
				"metallicFactor":0,
				"roughnessFactor":0.41363635659217834
			}
		},
		{
			"doubleSided":true,
			"name":"Black_Leather",
			"normalTexture":{
				"index":4
			},
			"pbrMetallicRoughness":{
				"baseColorTexture":{
					"index":5
				},
				"metallicFactor":0,
				"roughnessFactor":0.580909013748169
			}
		},
		{
			"doubleSided":true,
			"name":"Charcoal_Fabric",
			"normalTexture":{
				"index":6
			},
			"pbrMetallicRoughness":{
				"baseColorTexture":{
					"index":7
				},
				"metallicFactor":0,
				"roughnessFactor":0.699999988079071
			}
		},
		{
			"doubleSided":true,
			"name":"Cognac_Leather",
			"normalTexture":{
				"index":8
			},
			"pbrMetallicRoughness":{
				"baseColorTexture":{
					"index":9
				},
				"metallicFactor":0,
				"roughnessFactor":0.5
			}
		},
		{
			"doubleSided":true,
			"name":"Grey_Leather",
			"normalTexture":{
				"index":10,
				"scale":2
			},
			"pbrMetallicRoughness":{
				"baseColorTexture":{
					"index":11
				},
				"metallicFactor":0,
				"roughnessFactor":0.5
			}
		}
	],
	"meshes":[
		{
			"name":"Mesh_0",
			"primitives":[
				{
					"attributes":{
						"POSITION":0,
						"NORMAL":1,
						"TEXCOORD_0":2
					},
					"indices":3,
					"material":0
				},
				{
					"attributes":{
						"POSITION":4,
						"NORMAL":5,
						"TEXCOORD_0":6
					},
					"indices":7,
					"material":1
				}
			]
		},
		{
			"name":"Mesh_1",
			"primitives":[
				{
					"attributes":{
						"POSITION":8,
						"NORMAL":9,
						"TEXCOORD_0":10
					},
					"indices":11,
					"material":2
				}
			]
		},
		{
			"name":"Mesh_2",
			"primitives":[
				{
					"attributes":{
						"POSITION":12,
						"NORMAL":13,
						"TEXCOORD_0":14
					},
					"indices":15,
					"material":2
				},
				{
					"attributes":{
						"POSITION":16,
						"NORMAL":17,
						"TEXCOORD_0":18
					},
					"indices":19,
					"material":3
				},
				{
					"attributes":{
						"POSITION":20,
						"NORMAL":21,
						"TEXCOORD_0":22
					},
					"indices":23,
					"material":4
				},
				{
					"attributes":{
						"POSITION":24,
						"NORMAL":25,
						"TEXCOORD_0":26
					},
					"indices":19,
					"material":5
				}
			]
		}
	],
	"textures":[
		{
			"sampler":0,
			"source":0
		},
		{
			"sampler":0,
			"source":1
		},
		{
			"sampler":0,
			"source":2
		},
		{
			"sampler":0,
			"source":3
		},
		{
			"sampler":0,
			"source":4
		},
		{
			"sampler":0,
			"source":5
		},
		{
			"sampler":0,
			"source":6
		},
		{
			"sampler":0,
			"source":7
		},
		{
			"sampler":0,
			"source":8
		},
		{
			"sampler":0,
			"source":9
		},
		{
			"sampler":0,
			"source":10
		},
		{
			"sampler":0,
			"source":11
		}
	],
	"images":[
		{
			"mimeType":"image/jpeg",
			"name":"oak_normal",
			"uri":"textures/wood/oak_normal.jpg"
		},
		{
			"mimeType":"image/jpeg",
			"name":"oak_diffuse",
			"uri":"textures/wood/oak_diffuse.jpg"
		},
		{
			"mimeType":"image/jpeg",
			"name":"walnut_normal",
			"uri":"textures/wood/walnut_normal.jpg"
		},
		{
			"mimeType":"image/jpeg",
			"name":"walnut_diffuse",
			"uri":"textures/wood/walnut_diffuse.jpg"
		},
		{
			"mimeType":"image/jpeg",
			"name":"leather_black_normal",
			"uri":"textures/cushion/leather_black_normal.jpg"
		},
		{
			"mimeType":"image/jpeg",
			"name":"leather_black_diffuse",
			"uri":"textures/cushion/leather_black_diffuse.jpg"
		},
		{
			"mimeType":"image/jpeg",
			"name":"fabric_charcoal_normal",
			"uri":"textures/cushion/fabric_charcoal_normal.jpg"
		},
		{
			"mimeType":"image/jpeg",
			"name":"fabric_charcoal_diffuse",
			"uri":"textures/cushion/fabric_charcoal_diffuse.jpg"
		},
		{
			"mimeType":"image/jpeg",
			"name":"leather_cognac_normal",
			"uri":"textures/cushion/leather_cognac_normal.jpg"
		},
		{
			"mimeType":"image/jpeg",
			"name":"leather_cognac_diffuse",
			"uri":"textures/cushion/leather_cognac_diffuse.jpg"
		},
		{
			"mimeType":"image/jpeg",
			"name":"leather_grey_normal",
			"uri":"textures/cushion/leather_grey_normal.jpg"
		},
		{
			"mimeType":"image/jpeg",
			"name":"leather_grey_diffuse",
			"uri":"textures/cushion/leather_grey_diffuse.jpg"
		}
	],
	"accessors":[
		{
			"bufferView":0,
			"componentType":5126,
			"count":3,
			"max":[
				0.37370598316192627,
				0.00024581700563430786,
				0.442611962556839
			],
			"min":[
				0.35166409611701965,
				0.0002453080378472805,
				0.4106139838695526
			],
			"type":"VEC3"
		},
		{
			"bufferView":1,
			"componentType":5126,
			"count":3,
			"type":"VEC3"
		},
		{
			"bufferView":2,
			"componentType":5126,
			"count":3,
			"type":"VEC2"
		},
		{
			"bufferView":3,
			"componentType":5123,
			"count":3,
			"type":"SCALAR"
		},
		{
			"bufferView":4,
			"componentType":5126,
			"count":8041,
			"max":[
				0.4297810196876526,
				0.9435838460922241,
				0.4734437167644501
			],
			"min":[
				-0.42793208360671997,
				-4.449998959898949e-05,
				-0.5180995464324951
			],
			"type":"VEC3"
		},
		{
			"bufferView":5,
			"componentType":5126,
			"count":8041,
			"type":"VEC3"
		},
		{
			"bufferView":6,
			"componentType":5126,
			"count":8041,
			"type":"VEC2"
		},
		{
			"bufferView":7,
			"componentType":5123,
			"count":40713,
			"type":"SCALAR"
		},
		{
			"bufferView":8,
			"componentType":5126,
			"count":6828,
			"max":[
				0.3356698453426361,
				0.5349401235580444,
				0.45270559191703796
			],
			"min":[
				-0.33361387252807617,
				0.3776133060455322,
				-0.1857050061225891
			],
			"type":"VEC3"
		},
		{
			"bufferView":9,
			"componentType":5126,
			"count":6828,
			"type":"VEC3"
		},
		{
			"bufferView":10,
			"componentType":5126,
			"count":6828,
			"type":"VEC2"
		},
		{
			"bufferView":11,
			"componentType":5123,
			"count":38484,
			"type":"SCALAR"
		},
		{
			"bufferView":12,
			"componentType":5126,
			"count":6802,
			"max":[
				0.3376961648464203,
				0.9489505290985107,
				-0.1995849609375
			],
			"min":[
				-0.32853806018829346,
				0.4925086498260498,
				-0.4896867871284485
			],
			"type":"VEC3"
		},
		{
			"bufferView":13,
			"componentType":5126,
			"count":6802,
			"type":"VEC3"
		},
		{
			"bufferView":14,
			"componentType":5126,
			"count":6802,
			"type":"VEC2"
		},
		{
			"bufferView":15,
			"componentType":5123,
			"count":39315,
			"type":"SCALAR"
		},
		{
			"bufferView":16,
			"componentType":5126,
			"count":3,
			"max":[
				-0.31937578320503235,
				0.6679413318634033,
				-0.3027748465538025
			],
			"min":[
				-0.3228522539138794,
				0.622336208820343,
				-0.32575586438179016
			],
			"type":"VEC3"
		},
		{
			"bufferView":17,
			"componentType":5126,
			"count":3,
			"type":"VEC3"
		},
		{
			"bufferView":18,
			"componentType":5126,
			"count":3,
			"type":"VEC2"
		},
		{
			"bufferView":19,
			"componentType":5123,
			"count":3,
			"type":"SCALAR"
		},
		{
			"bufferView":20,
			"componentType":5126,
			"count":3,
			"max":[
				-0.3204660415649414,
				0.7094787359237671,
				-0.32575586438179016
			],
			"min":[
				-0.3235950171947479,
				0.6679413318634033,
				-0.34781932830810547
			],
			"type":"VEC3"
		},
		{
			"bufferView":21,
			"componentType":5126,
			"count":3,
			"type":"VEC3"
		},
		{
			"bufferView":22,
			"componentType":5126,
			"count":3,
			"type":"VEC2"
		},
		{
			"bufferView":23,
			"componentType":5123,
			"count":3,
			"type":"SCALAR"
		},
		{
			"bufferView":24,
			"componentType":5126,
			"count":3,
			"max":[
				-0.3204660415649414,
				0.7602807283401489,
				-0.3459509611129761
			],
			"min":[
				-0.3251339793205261,
				0.7081542611122131,
				-0.37017586827278137
			],
			"type":"VEC3"
		},
		{
			"bufferView":25,
			"componentType":5126,
			"count":3,
			"type":"VEC3"
		},
		{
			"bufferView":26,
			"componentType":5126,
			"count":3,
			"type":"VEC2"
		}
	],
	"bufferViews":[
		{
			"buffer":0,
			"byteLength":36,
			"byteOffset":0,
			"target":34962
		},
		{
			"buffer":0,
			"byteLength":36,
			"byteOffset":36,
			"target":34962
		},
		{
			"buffer":0,
			"byteLength":24,
			"byteOffset":72,
			"target":34962
		},
		{
			"buffer":0,
			"byteLength":6,
			"byteOffset":96,
			"target":34963
		},
		{
			"buffer":0,
			"byteLength":96492,
			"byteOffset":104,
			"target":34962
		},
		{
			"buffer":0,
			"byteLength":96492,
			"byteOffset":96596,
			"target":34962
		},
		{
			"buffer":0,
			"byteLength":64328,
			"byteOffset":193088,
			"target":34962
		},
		{
			"buffer":0,
			"byteLength":81426,
			"byteOffset":257416,
			"target":34963
		},
		{
			"buffer":0,
			"byteLength":81936,
			"byteOffset":338844,
			"target":34962
		},
		{
			"buffer":0,
			"byteLength":81936,
			"byteOffset":420780,
			"target":34962
		},
		{
			"buffer":0,
			"byteLength":54624,
			"byteOffset":502716,
			"target":34962
		},
		{
			"buffer":0,
			"byteLength":76968,
			"byteOffset":557340,
			"target":34963
		},
		{
			"buffer":0,
			"byteLength":81624,
			"byteOffset":634308,
			"target":34962
		},
		{
			"buffer":0,
			"byteLength":81624,
			"byteOffset":715932,
			"target":34962
		},
		{
			"buffer":0,
			"byteLength":54416,
			"byteOffset":797556,
			"target":34962
		},
		{
			"buffer":0,
			"byteLength":78630,
			"byteOffset":851972,
			"target":34963
		},
		{
			"buffer":0,
			"byteLength":36,
			"byteOffset":930604,
			"target":34962
		},
		{
			"buffer":0,
			"byteLength":36,
			"byteOffset":930640,
			"target":34962
		},
		{
			"buffer":0,
			"byteLength":24,
			"byteOffset":930676,
			"target":34962
		},
		{
			"buffer":0,
			"byteLength":6,
			"byteOffset":930700,
			"target":34963
		},
		{
			"buffer":0,
			"byteLength":36,
			"byteOffset":930708,
			"target":34962
		},
		{
			"buffer":0,
			"byteLength":36,
			"byteOffset":930744,
			"target":34962
		},
		{
			"buffer":0,
			"byteLength":24,
			"byteOffset":930780,
			"target":34962
		},
		{
			"buffer":0,
			"byteLength":6,
			"byteOffset":930804,
			"target":34963
		},
		{
			"buffer":0,
			"byteLength":36,
			"byteOffset":930812,
			"target":34962
		},
		{
			"buffer":0,
			"byteLength":36,
			"byteOffset":930848,
			"target":34962
		},
		{
			"buffer":0,
			"byteLength":24,
			"byteOffset":930884,
			"target":34962
		}
	],
	"samplers":[
		{
			"magFilter":9729,
			"minFilter":9987
		}
	],
	"buffers":[
		{
			"byteLength":930908,
			"uri":"chair.bin"
		}
	]
}
