{
	"asset":{
		"generator":"Khronos glTF Blender I/O v4.2.60",
		"version":"2.0"
	},
	"extensionsUsed":[
		"KHR_materials_clearcoat"
	],
	"scene":0,
	"scenes":[
		{
			"name":"Scene",
			"nodes":[
				0,
				1,
				2
			]
		}
	],
	"nodes":[
		{
			"mesh":0,
			"name":"chair_frame_high_painted",
			"translation":[
				0.001917471643537283,
				-0.006180976051837206,
				0.053627967834472656
			]
		},
		{
			"mesh":1,
			"name":"seat_low_textured",
			"rotation":[
				-0.048519253730773926,
				0,
				0,
				0.9988223314285278
			],
			"scale":[
				1.4085863828659058,
				1.4085863828659058,
				1.3130275011062622
			],
			"translation":[
				0.0008347532711923122,
				0.4862571060657501,
				0.1547682285308838
			]
		},
		{
			"mesh":2,
			"name":"seat_back_low_material",
			"rotation":[
				-0.023795995861291885,
				0,
				0,
				0.9997169375419617
			],
			"scale":[
				1.4085863828659058,
				1.4085863828659058,
				1.4085863828659058
			],
			"translation":[
				0.0045509240590035915,
				0.6864235401153564,
				-0.3176622688770294
			]
		}
	],
	"materials":[
		{
			"doubleSided":true,
			"extensions":{
				"KHR_materials_clearcoat":{
					"clearcoatFactor":0.5199999809265137,
					"clearcoatRoughnessFactor":0.23999999463558197
				}
			},
			"name":"Material_0",
			"normalTexture":{
				"index":0,
				"scale":2.309999942779541
			},
			"pbrMetallicRoughness":{
				"baseColorFactor":[
					0.9130986332893372,
					0.8962693810462952,
					0.7835378050804138,
					1
				],
				"baseColorTexture":{
					"index":1
				},
				"metallicFactor":0,
				"roughnessFactor":0.3199999928474426
			}
		},
		{
			"doubleSided":true,
			"name":"Material.003",
			"normalTexture":{
				"index":2
			},
			"pbrMetallicRoughness":{
				"baseColorTexture":{
					"index":3
				},
				"metallicFactor":0,
				"roughnessFactor":0.5
			}
		},
		{
			"doubleSided":true,
			"name":"Material.004",
			"normalTexture":{
				"index":4
			},
			"pbrMetallicRoughness":{
				"baseColorTexture":{
					"index":5
				},
				"metallicFactor":0,
				"roughnessFactor":0.5
			}
		}
	],
	"meshes":[
		{
			"name":"Mesh_0",
			"primitives":[
				{
					"attributes":{
						"POSITION":0,
						"NORMAL":1,
						"TEXCOORD_0":2
					},
					"indices":3,
					"material":0
				}
			]
		},
		{
			"name":"Mesh_1",
			"primitives":[
				{
					"attributes":{
						"POSITION":4,
						"NORMAL":5,
						"TEXCOORD_0":6
					},
					"indices":7,
					"material":1
				}
			]
		},
		{
			"name":"Mesh_2",
			"primitives":[
				{
					"attributes":{
						"POSITION":8,
						"NORMAL":9,
						"TEXCOORD_0":10
					},
					"indices":11,
					"material":2
				}
			]
		}
	],
	"textures":[
		{
			"sampler":0,
			"source":0
		},
		{
			"sampler":0,
			"source":1
		},
		{
			"sampler":0,
			"source":2
		},
		{
			"sampler":0,
			"source":3
		},
		{
			"sampler":0,
			"source":4
		},
		{
			"sampler":0,
			"source":5
		}
	],
	"images":[
		{
			"mimeType":"image/jpeg",
			"name":"Image_1",
			"uri":"Image_1.jpg"
		},
		{
			"mimeType":"image/jpeg",
			"name":"oak_diffuse",
			"uri":"oak_diffuse.jpg"
		},
		{
			"mimeType":"image/jpeg",
			"name":"Image_3",
			"uri":"Image_3.jpg"
		},
		{
			"mimeType":"image/jpeg",
			"name":"Image_2",
			"uri":"Image_2.jpg"
		},
		{
			"mimeType":"image/jpeg",
			"name":"Image_5",
			"uri":"Image_5.jpg"
		},
		{
			"mimeType":"image/jpeg",
			"name":"Image_4",
			"uri":"Image_4.jpg"
		}
	],
	"accessors":[
		{
			"bufferView":0,
			"componentType":5126,
			"count":8041,
			"max":[
				0.42786353826522827,
				0.9497648477554321,
				0.4198157489299774
			],
			"min":[
				-0.4298495650291443,
				0.006136476062238216,
				-0.5717275142669678
			],
			"type":"VEC3"
		},
		{
			"bufferView":1,
			"componentType":5126,
			"count":8041,
			"type":"VEC3"
		},
		{
			"bufferView":2,
			"componentType":5126,
			"count":8041,
			"type":"VEC2"
		},
		{
			"bufferView":3,
			"componentType":5123,
			"count":40716,
			"type":"SCALAR"
		},
		{
			"bufferView":4,
			"componentType":5126,
			"count":6828,
			"max":[
				0.23770999908447266,
				0.020145190879702568,
				0.22527644038200378
			],
			"min":[
				-0.23743566870689392,
				-0.0555872917175293,
				-0.26384538412094116
			],
			"type":"VEC3"
		},
		{
			"bufferView":5,
			"componentType":5126,
			"count":6828,
			"type":"VEC3"
		},
		{
			"bufferView":6,
			"componentType":5126,
			"count":6828,
			"type":"VEC2"
		},
		{
			"bufferView":7,
			"componentType":5123,
			"count":38484,
			"type":"SCALAR"
		},
		{
			"bufferView":8,
			"componentType":5126,
			"count":6802,
			"max":[
				0.23651033639907837,
				0.19046814739704132,
				0.07879393547773361
			],
			"min":[
				-0.23647040128707886,
				-0.1397801786661148,
				-0.11373735219240189
			],
			"type":"VEC3"
		},
		{
			"bufferView":9,
			"componentType":5126,
			"count":6802,
			"type":"VEC3"
		},
		{
			"bufferView":10,
			"componentType":5126,
			"count":6802,
			"type":"VEC2"
		},
		{
			"bufferView":11,
			"componentType":5123,
			"count":39324,
			"type":"SCALAR"
		}
	],
	"bufferViews":[
		{
			"buffer":0,
			"byteLength":96492,
			"byteOffset":0,
			"target":34962
		},
		{
			"buffer":0,
			"byteLength":96492,
			"byteOffset":96492,
			"target":34962
		},
		{
			"buffer":0,
			"byteLength":64328,
			"byteOffset":192984,
			"target":34962
		},
		{
			"buffer":0,
			"byteLength":81432,
			"byteOffset":257312,
			"target":34963
		},
		{
			"buffer":0,
			"byteLength":81936,
			"byteOffset":338744,
			"target":34962
		},
		{
			"buffer":0,
			"byteLength":81936,
			"byteOffset":420680,
			"target":34962
		},
		{
			"buffer":0,
			"byteLength":54624,
			"byteOffset":502616,
			"target":34962
		},
		{
			"buffer":0,
			"byteLength":76968,
			"byteOffset":557240,
			"target":34963
		},
		{
			"buffer":0,
			"byteLength":81624,
			"byteOffset":634208,
			"target":34962
		},
		{
			"buffer":0,
			"byteLength":81624,
			"byteOffset":715832,
			"target":34962
		},
		{
			"buffer":0,
			"byteLength":54416,
			"byteOffset":797456,
			"target":34962
		},
		{
			"buffer":0,
			"byteLength":78648,
			"byteOffset":851872,
			"target":34963
		}
	],
	"samplers":[
		{
			"magFilter":9729,
			"minFilter":9987
		}
	],
	"buffers":[
		{
			"byteLength":930520,
			"uri":"chair.bin"
		}
	]
}
