{
	"asset":{
		"generator":"Khronos glTF Blender I/O v4.2.60",
		"version":"2.0"
	},
	"extensionsUsed":[
		"EXT_texture_webp"
	],
	"extensionsRequired":[
		"EXT_texture_webp"
	],
	"scene":0,
	"scenes":[
		{
			"name":"Scene",
			"nodes":[
				0,
				1
			]
		}
	],
	"nodes":[
		{
			"mesh":0,
			"name":"floor",
			"scale":[
				3.4281651973724365,
				1.7119717597961426,
				3.4281651973724365
			],
			"translation":[
				0,
				1.7242616415023804,
				0
			]
		},
		{
			"mesh":1,
			"name":"walls",
			"scale":[
				3.4281651973724365,
				1.7119717597961426,
				3.4281651973724365
			],
			"translation":[
				0,
				1.7242616415023804,
				0
			]
		}
	],
	"materials":[
		{
			"doubleSided":true,
			"name":"floor",
			"normalTexture":{
				"index":0
			},
			"pbrMetallicRoughness":{
				"baseColorTexture":{
					"index":1
				},
				"metallicFactor":0,
				"roughnessFactor":0.5
			}
		},
		{
			"doubleSided":true,
			"name":"walls",
			"pbrMetallicRoughness":{
				"baseColorTexture":{
					"index":2
				},
				"metallicFactor":0,
				"roughnessFactor":0.5
			}
		}
	],
	"meshes":[
		{
			"name":"Cylinder.005",
			"primitives":[
				{
					"attributes":{
						"POSITION":0,
						"NORMAL":1,
						"TEXCOORD_0":2,
						"TEXCOORD_1":3
					},
					"indices":4,
					"material":0
				}
			]
		},
		{
			"name":"Cylinder.003",
			"primitives":[
				{
					"attributes":{
						"POSITION":5,
						"NORMAL":6,
						"TEXCOORD_0":7
					},
					"indices":8,
					"material":1
				}
			]
		}
	],
	"textures":[
		{
			"extensions":{
				"EXT_texture_webp":{
					"source":0
				}
			},
			"sampler":0
		},
		{
			"extensions":{
				"EXT_texture_webp":{
					"source":1
				}
			},
			"sampler":0
		},
		{
			"extensions":{
				"EXT_texture_webp":{
					"source":2
				}
			},
			"sampler":0
		}
	],
	"images":[
		{
			"mimeType":"image/webp",
			"name":"warm-floor-normal",
			"uri":"textures/env/warm-floor-normal.webp"
		},
		{
			"mimeType":"image/webp",
			"name":"warm-floor-diffuse",
			"uri":"textures/env/warm-floor-diffuse.webp"
		},
		{
			"mimeType":"image/webp",
			"name":"warm-wall-diffuse",
			"uri":"textures/env/warm-wall-diffuse.webp"
		}
	],
	"accessors":[
		{
			"bufferView":0,
			"componentType":5126,
			"count":32,
			"max":[
				0.9753289818763733,
				-1,
				0.9753289818763733
			],
			"min":[
				-0.9753289818763733,
				-1,
				-0.9753289818763733
			],
			"type":"VEC3"
		},
		{
			"bufferView":1,
			"componentType":5126,
			"count":32,
			"type":"VEC3"
		},
		{
			"bufferView":2,
			"componentType":5126,
			"count":32,
			"type":"VEC2"
		},
		{
			"bufferView":3,
			"componentType":5126,
			"count":32,
			"type":"VEC2"
		},
		{
			"bufferView":4,
			"componentType":5123,
			"count":90,
			"type":"SCALAR"
		},
		{
			"bufferView":5,
			"componentType":5126,
			"count":136,
			"max":[
				1,
				1,
				1
			],
			"min":[
				-1,
				-1,
				-1
			],
			"type":"VEC3"
		},
		{
			"bufferView":6,
			"componentType":5126,
			"count":136,
			"type":"VEC3"
		},
		{
			"bufferView":7,
			"componentType":5126,
			"count":136,
			"type":"VEC2"
		},
		{
			"bufferView":8,
			"componentType":5123,
			"count":576,
			"type":"SCALAR"
		}
	],
	"bufferViews":[
		{
			"buffer":0,
			"byteLength":384,
			"byteOffset":0,
			"target":34962
		},
		{
			"buffer":0,
			"byteLength":384,
			"byteOffset":384,
			"target":34962
		},
		{
			"buffer":0,
			"byteLength":256,
			"byteOffset":768,
			"target":34962
		},
		{
			"buffer":0,
			"byteLength":256,
			"byteOffset":1024,
			"target":34962
		},
		{
			"buffer":0,
			"byteLength":180,
			"byteOffset":1280,
			"target":34963
		},
		{
			"buffer":0,
			"byteLength":1632,
			"byteOffset":1460,
			"target":34962
		},
		{
			"buffer":0,
			"byteLength":1632,
			"byteOffset":3092,
			"target":34962
		},
		{
			"buffer":0,
			"byteLength":1088,
			"byteOffset":4724,
			"target":34962
		},
		{
			"buffer":0,
			"byteLength":1152,
			"byteOffset":5812,
			"target":34963
		}
	],
	"samplers":[
		{
			"magFilter":9729,
			"minFilter":9987
		}
	],
	"buffers":[
		{
			"byteLength":6964,
			"uri":"environment.bin"
		}
	]
}
